<?xml version="1.0" standalone="no"?>
<!DOCTYPE svg PUBLIC "-//W3C//DTD SVG 20010904//EN"
 "http://www.w3.org/TR/2001/REC-SVG-20010904/DTD/svg10.dtd">
<svg version="1.0" xmlns="http://www.w3.org/2000/svg"
 width="225.000000pt" height="225.000000pt" viewBox="0 0 225.000000 225.000000"
 preserveAspectRatio="xMidYMid meet">
<metadata>
Created by potrace 1.14, written by Peter Selinger 2001-2017
</metadata>
<g transform="translate(0.000000,225.000000) scale(0.100000,-0.100000)"
fill="#000000" stroke="none">
<path d="M2162 2229 c-156 -35 -462 -139 -462 -157 0 -4 84 -91 187 -194 l187
-187 33 82 c45 109 99 282 122 390 10 48 18 87 18 86 -1 0 -40 -9 -85 -20z"/>
<path d="M1526 1768 c-52 -14 -112 -76 -126 -129 -52 -192 179 -330 319 -190
140 140 -1 372 -193 319z"/>
<path d="M634 1507 c-259 -105 -467 -294 -588 -534 -20 -40 -36 -75 -36 -78 0
-2 42 17 93 44 199 106 416 154 521 115 6 -2 22 22 35 53 14 31 49 94 78 141
29 46 53 87 53 92 0 4 -9 15 -20 25 -28 25 -53 98 -48 139 2 20 2 36 -2 36 -3
-1 -41 -15 -86 -33z"/>
<path d="M1069 1101 c-24 -17 -98 -79 -165 -140 l-121 -109 -79 79 c-43 43
-81 75 -84 71 -4 -4 -14 -28 -23 -53 -10 -25 -33 -61 -52 -79 l-35 -34 66 -67
67 -67 -60 -74 c-33 -40 -77 -98 -99 -128 l-39 -55 55 39 c30 22 88 66 128 99
l74 60 67 -67 67 -66 33 34 c18 19 54 42 80 51 25 10 49 21 53 24 4 4 -28 42
-72 86 l-79 79 88 95 c196 214 246 299 130 222z"/>
<path d="M1251 740 c-40 -27 -102 -61 -137 -77 -58 -26 -62 -30 -56 -53 4 -14
6 -61 5 -105 -2 -107 -39 -230 -113 -377 -32 -65 -56 -118 -53 -118 12 0 144
70 198 105 128 83 293 273 370 425 22 44 75 173 75 183 0 2 -16 1 -36 -1 -41
-5 -114 20 -139 48 -10 11 -23 20 -29 19 -6 0 -44 -22 -85 -49z"/>
</g>
</svg>
